<?xml version="1.0" encoding="iso-8859-1"?>
<!-- Generator: Adobe Illustrator 19.2.1, SVG Export Plug-In . SVG Version: 6.00 Build 0)  -->
<svg version="1.1" id="Layer_1" xmlns="http://www.w3.org/2000/svg" xmlns:xlink="http://www.w3.org/1999/xlink" x="0px" y="0px"
	 viewBox="0 0 302.497 100" style="enable-background:new 0 0 302.497 100;" xml:space="preserve">
<g id="New_Symbol">
	<g>
		<path style="fill:#FFFFFF;" d="M136.037,56.758l0.044,0.144c0.059,3.75-0.992,6.727-3.153,8.928
			c-2.161,2.202-5.16,3.304-8.998,3.304c-3.853,0-6.98-1.349-9.382-4.045c-2.403-2.696-3.604-6.167-3.604-10.412v-6.917
			c0-4.229,1.172-7.699,3.516-10.412c2.343-2.712,5.39-4.069,9.14-4.069c3.955,0,7.045,1.105,9.272,3.315s3.311,5.222,3.252,9.035
			l-0.044,0.144h-6.24c0-2.297-0.505-4.057-1.516-5.277s-2.585-1.831-4.724-1.831c-1.919,0-3.442,0.849-4.57,2.547
			c-1.128,1.698-1.692,3.861-1.692,6.492v6.958c0,2.663,0.593,4.843,1.78,6.541c1.187,1.697,2.791,2.546,4.812,2.546
			c2.007,0,3.49-0.586,4.449-1.759s1.439-2.916,1.439-5.23H136.037z"/>
		<path style="fill:#FFFFFF;" d="M157.812,61.115h-11.228l-2.175,7.516h-6.482l11.008-34.849h6.57l10.964,34.849h-6.482
			L157.812,61.115z M148.166,55.633h8.064l-3.955-13.69h-0.132L148.166,55.633z"/>
		<path style="fill:#FFFFFF;" d="M175.873,63.244h14.237v5.386h-20.653V33.781h6.416V63.244z"/>
		<path style="fill:#FFFFFF;" d="M200.218,63.244h14.237v5.386h-20.653V33.781h6.416V63.244z"/>
		<path style="fill:#FFFFFF;" d="M218.147,68.63V33.781h10.811c3.764,0,6.701,0.798,8.811,2.394s3.164,3.981,3.164,7.156
			c0,1.612-0.393,3.052-1.176,4.32c-0.784,1.269-1.923,2.222-3.417,2.86c1.919,0.447,3.358,1.404,4.317,2.873
			c0.96,1.468,1.439,3.167,1.439,5.098c0,3.335-1.011,5.86-3.032,7.575c-2.021,1.716-4.885,2.573-8.591,2.573H218.147z
			 M224.563,48.381h4.614c1.713,0,3.031-0.383,3.954-1.149c0.923-0.766,1.385-1.882,1.385-3.351c0-1.612-0.465-2.8-1.396-3.566
			s-2.318-1.149-4.163-1.149h-4.395V48.381z M224.563,53.216v10.028h5.91c1.699,0,2.995-0.401,3.889-1.205
			c0.894-0.805,1.341-1.994,1.341-3.57c0-1.703-0.381-3.004-1.143-3.903s-1.963-1.35-3.604-1.35H224.563z"/>
		<path style="fill:#FFFFFF;" d="M272.747,54.341c0,4.276-1.242,7.811-3.725,10.604c-2.482,2.792-5.709,4.188-9.679,4.188
			c-3.94,0-7.141-1.396-9.602-4.188c-2.461-2.793-3.691-6.327-3.691-10.604V48.07c0-4.26,1.227-7.791,3.681-10.591
			c2.453-2.8,5.649-4.2,9.59-4.2c3.97,0,7.2,1.4,9.69,4.2c2.489,2.801,3.735,6.331,3.735,10.591V54.341z M266.331,48.04
			c0-2.718-0.623-4.948-1.868-6.69c-1.245-1.743-2.959-2.614-5.142-2.614s-3.874,0.868-5.075,2.602s-1.802,3.969-1.802,6.703v6.331
			c0,2.766,0.607,5.02,1.824,6.763c1.216,1.742,2.907,2.613,5.075,2.613c2.197,0,3.911-0.871,5.142-2.613
			c1.23-1.743,1.846-3.997,1.846-6.763V48.04z"/>
		<path style="fill:#FFFFFF;" d="M288.479,46.132l5.998-12.351h7.471l-9.492,17.281l10.042,17.568h-7.757l-6.174-12.565
			l-6.174,12.565H274.9l9.734-17.568l-9.492-17.281h7.427L288.479,46.132z"/>
	</g>
	<path style="fill:#006599;" d="M55.455,97.281c-3.626,3.626-9.558,3.626-13.184,0L2.719,57.729c-3.625-3.626-3.625-9.558,0-13.184
		L42.27,4.994c3.626-3.626,9.558-3.626,13.184,0l39.551,39.552c3.626,3.626,3.626,9.558,0,13.184L55.455,97.281z"/>
	<path style="fill:#0084C7;" d="M57.729,95.006c-3.626,3.626-9.558,3.626-13.184,0L4.994,55.454c-3.625-3.626-3.625-9.558,0-13.184
		L44.545,2.719c3.626-3.626,9.558-3.626,13.184,0l39.551,39.552c3.626,3.626,3.626,9.558,0,13.184L57.729,95.006z"/>
	<g>
		<path style="fill:#FFFFFF;" d="M36.842,25.326c-4.545,0-8.237,1.746-11.077,5.239c-2.84,3.493-4.26,8.009-4.26,13.547v9.566
			c0,5.559,1.477,10.081,4.43,13.563c2.954,3.482,6.791,5.224,11.511,5.224c4.701,0,8.289-1.416,10.762-4.248
			c2.473-2.833,3.797-6.934,3.973-12.304l-0.052-0.189h-8.626c-0.124,2.979-0.63,5.15-1.521,6.514
			c-0.891,1.364-2.403,2.046-4.535,2.046c-2.203,0-3.933-0.976-5.192-2.927c-1.259-1.951-1.887-4.51-1.887-7.678v-9.629
			c0-3.147,0.577-5.69,1.73-7.631c1.154-1.94,2.736-2.911,4.746-2.911c2.377,0,4.059,0.723,5.047,2.172
			c0.987,1.447,1.542,3.66,1.665,6.639h8.626l0.052-0.189c-0.333-5.371-1.775-9.514-4.326-12.431
			C45.354,26.784,41.666,25.326,36.842,25.326z"/>
		<path style="fill:#FFFFFF;" d="M79.272,51.987c-1.067-1.888-2.719-3.145-4.955-3.772c1.782-0.884,3.102-2.202,3.959-3.95
			c0.856-1.749,1.285-3.745,1.285-5.99c0-4.295-1.329-7.528-3.985-9.697c-2.657-2.169-6.354-3.253-11.091-3.253H46.958
			c4.875,2.629,8.197,7.785,8.197,13.702v20.149c0,3.633-1.293,7.174-3.642,9.974c-1.076,1.318-2.342,2.429-3.743,3.314h18.601
			c4.667,0,8.25-1.176,10.75-3.529c2.5-2.353,3.749-5.828,3.749-10.426C80.87,56.051,80.337,53.876,79.272,51.987z M60.263,33.743
			h4.221c2.097,0,3.653,0.459,4.667,1.376c1.013,0.918,1.521,2.38,1.521,4.388c0,1.77-0.499,3.113-1.495,4.03
			c-0.996,0.918-2.5,1.398-4.51,1.441h-4.405V33.743z M70.619,62.672c-0.944,0.917-2.36,1.375-4.248,1.375h-6.109V52.23h6.607
			c1.818,0,3.133,0.524,3.946,1.571c0.813,1.047,1.219,2.595,1.219,4.645C72.034,60.346,71.563,61.754,70.619,62.672z"/>
	</g>
	<path style="fill:#004366;" d="M60.263,33.743h4.221c2.097,0,3.653,0.459,4.667,1.376c1.013,0.918,1.521,2.38,1.521,4.388
		c0,1.77-0.499,3.113-1.495,4.03c-0.996,0.918-2.5,1.398-4.51,1.441h-4.405V33.743z"/>
	<path style="fill:#004366;" d="M70.619,62.672c-0.944,0.917-2.36,1.375-4.248,1.375h-6.109V52.23h6.607
		c1.818,0,3.133,0.524,3.946,1.571c0.813,1.047,1.219,2.595,1.219,4.645C72.034,60.346,71.563,61.754,70.619,62.672z"/>
	<path style="fill:#006599;" d="M99.335,52.334L76.992,29.991c1.711,2.078,2.568,4.838,2.568,8.285c0,2.245-0.429,4.241-1.285,5.99
		c-0.856,1.748-2.176,3.065-3.959,3.95c2.237,0.627,3.889,1.884,4.955,3.772c1.066,1.889,1.599,4.064,1.599,6.524
		c0,4.598-1.249,8.073-3.749,10.426c-2.5,2.353-6.083,3.529-10.75,3.529H47.771c1.401-0.885,2.667-1.996,3.743-3.314
		c2.348-2.799,3.642-6.341,3.642-9.974V39.028c0-5.917-3.322-11.073-8.197-13.702L36.59,25.323l-0.009,0.009
		c0.087-0.001,0.173-0.006,0.26-0.006c4.824,0,8.512,1.459,11.065,4.374c2.551,2.916,3.993,7.06,4.326,12.431l-0.052,0.189h-8.626
		c-0.123-2.979-0.678-5.192-1.665-6.639c-0.988-1.448-2.67-2.172-5.047-2.172c-2.01,0-3.591,0.971-4.746,2.911
		c-1.153,1.941-1.73,4.484-1.73,7.631v9.629c0,3.168,0.629,5.727,1.887,7.678c1.259,1.951,2.989,2.927,5.192,2.927
		c2.132,0,3.644-0.681,4.535-2.046c0.891-1.364,1.398-3.535,1.521-6.514h8.626l0.052,0.189c-0.175,5.371-1.499,9.472-3.973,12.304
		c-2.473,2.832-6.061,4.248-10.762,4.248c-3.998,0-7.359-1.254-10.09-3.753l28.007,28.007c0.854-0.432,1.655-1.002,2.367-1.713
		l39.551-39.552C98.198,54.537,98.882,53.472,99.335,52.334z"/>
	<path style="fill:#004366;" d="M76.992,29.991c1.711,2.078,2.568,4.838,2.568,8.285c0,2.245-0.429,4.241-1.285,5.99
		c-0.856,1.748-2.176,3.065-3.959,3.95c2.237,0.627,3.889,1.884,4.955,3.772c1.066,1.889,1.599,4.064,1.599,6.524
		c0,4.598-1.249,8.073-3.749,10.426c-2.5,2.353-6.083,3.529-10.75,3.529H47.771l16.25,16.25l16.25-16.25l17.01-17.01
		c0.917-0.917,1.602-1.982,2.054-3.12L76.992,29.991z"/>
</g>
</svg>
